<?xml version="1.0" encoding="utf-8"?>
<!-- Generator: Adobe Illustrator 16.0.0, SVG Export Plug-In . SVG Version: 6.00 Build 0)  -->
<!DOCTYPE svg PUBLIC "-//W3C//DTD SVG 1.1//EN" "http://www.w3.org/Graphics/SVG/1.1/DTD/svg11.dtd">
<svg version="1.1" xmlns="http://www.w3.org/2000/svg" xmlns:xlink="http://www.w3.org/1999/xlink" x="0px" y="0px" width="200px"
	 height="111.429px" viewBox="0 0 200 111.429" enable-background="new 0 0 200 111.429" xml:space="preserve">
<g id="BG">
</g>
<g id="_x31_2_Grid">
</g>
<g id="Content">
	<path fill-rule="evenodd" clip-rule="evenodd" fill="#4D4D4D" d="M101.439,28.77c10.614,0,21.228,0,31.842-0.003
		c0.932,0,2.093-0.123,2.26,1.016c0.101,0.684-0.374,1.671-0.909,2.202c-8.103,8.072-16.245,16.102-24.409,24.113
		c-0.787,0.773-1.127,1.543-1.122,2.653c0.056,6.007-0.006,12.023,0.056,18.03c0.011,1.39-0.446,2.221-1.68,2.888
		c-3.661,1.989-7.249,4.102-10.87,6.152c-1.998,1.133-3.002,0.547-3.008-1.769c-0.006-8.438-0.022-16.869,0.022-25.307
		c0.005-1.111-0.334-1.878-1.116-2.648c-7.997-7.838-15.955-15.711-23.929-23.566c-0.273-0.276-0.642-0.505-0.804-0.837
		c-0.285-0.611-0.792-1.457-0.58-1.878c0.273-0.519,1.183-0.993,1.819-1.004c5.62-0.073,11.245-0.042,16.87-0.042
		C91.066,28.77,96.25,28.77,101.439,28.77z M200,0H0v111.429h200V0z"/>
</g>
<g id="New_Grid" display="none">
</g>
<g id="Layer_5">
</g>
</svg>
